<?xml version="1.0" encoding="UTF-8"?>
<svg enable-background="new" viewBox="0 0 744.09448 1052.3622" xmlns="http://www.w3.org/2000/svg">
 <path d="m37.564 962.78c2.0495-153.33 3.2814-306.67 2.0515-459.99-0.90965-151.26-4.1085-302.53-12.074-453.55 233.13-5.2199 466.66-6.5002 698.48-30.392l8e-5 -9e-6c-11.223 170.94-13.796 342.39-12.542 513.75v1.6e-4c0.55397 166.97 4.8505 333.91 8.2659 500.88-106.59-9.7692-213.46-16.478-320.42-21.15-105.62-4.9389-211.33-7.8473-317.05-8.6945l0.13642-17.025c105.95 0.84895 211.88 3.7634 317.71 8.7125 104.07 7.5695 208.11 17.187 311.92 29.874-6.5198-164.02-13.923-328.17-17.585-492.5 1.8616-168.6 7.5702-337.45 21.949-505.95l-1.6e-4 1.6e-5c-227.03 23.994-455.12 25.326-682.17 30.545 10.752 148.39 16.729 296.93 20.408 445.37 1.2306 153.51-0.0016 306.97-2.0525 460.36zm-13.321-0.17864c2.0484-153.28 3.28-306.53 2.0507-459.71 1.2569-153.47 0.23174-306.87-5.5528-459.95 237.89-5.2205 475.67-6.4611 711.24-30.273l9e-5 -9e-6c-8.7545 172.85-8.8739 346.33-5.1814 519.86v1.6e-4c-1.878 169.03-0.012 338.16 0.9742 507.43-108.76-7.4857-217.85-11.919-327.07-14.324-105.44-4.9309-210.98-7.8346-316.54-8.6804l0.07042-8.788c105.67 0.8467 211.32 3.7535 316.88 8.6896 107.73 3.9004 215.36 9.8351 322.69 18.827-2.5887-167.75-6.0582-335.43-5.7845-503.11-2.0841-172.1-0.34613-344.24 10.037-515.83l-1.7e-4 1.6e-5c-233.09 23.865-468.07 25.132-702.82 30.352 7.2231 151.72 9.6823 303.71 9.8546 455.73 1.2297 153.28-0.0021 306.58-2.0512 459.9z" fill-rule="evenodd"/>
</svg>
